<?xml version="1.0" encoding="UTF-8" standalone="no"?>
<!-- Created with Inkscape (http://www.inkscape.org/) -->

<svg
   xmlns:dc="http://purl.org/dc/elements/1.1/"
   xmlns:cc="http://creativecommons.org/ns#"
   xmlns:rdf="http://www.w3.org/1999/02/22-rdf-syntax-ns#"
   xmlns:svg="http://www.w3.org/2000/svg"
   xmlns="http://www.w3.org/2000/svg"
   xmlns:sodipodi="http://sodipodi.sourceforge.net/DTD/sodipodi-0.dtd"
   xmlns:inkscape="http://www.inkscape.org/namespaces/inkscape"
   version="1.1"
   id="svg834"
   xml:space="preserve"
   width="379.08615"
   height="190.01534"
   viewBox="0 0 379.08615 190.01534"
   sodipodi:docname="logo.svg"
   inkscape:version="0.92.2 5c3e80d, 2017-08-06"><metadata
     id="metadata840"><rdf:RDF><cc:Work
         rdf:about=""><dc:format>image/svg+xml</dc:format><dc:type
           rdf:resource="http://purl.org/dc/dcmitype/StillImage" /><dc:title></dc:title></cc:Work></rdf:RDF></metadata><defs
     id="defs838"><clipPath
       clipPathUnits="userSpaceOnUse"
       id="clipPath854"><path
         d="M 0,580.299 H 510.236 V 143.101 H 0 Z"
         id="path852"
         inkscape:connector-curvature="0" /></clipPath><clipPath
       clipPathUnits="userSpaceOnUse"
       id="clipPath926"><path
         d="M 0,0 H 510.236 V 737.008 H 0 Z"
         id="path924"
         inkscape:connector-curvature="0" /></clipPath></defs><sodipodi:namedview
     pagecolor="#ffffff"
     bordercolor="#666666"
     borderopacity="1"
     objecttolerance="10"
     gridtolerance="10"
     guidetolerance="10"
     inkscape:pageopacity="0"
     inkscape:pageshadow="2"
     inkscape:window-width="1680"
     inkscape:window-height="1006"
     id="namedview836"
     showgrid="false"
     fit-margin-top="0"
     fit-margin-left="0"
     fit-margin-right="0"
     fit-margin-bottom="0"
     inkscape:zoom="1"
     inkscape:cx="344.01475"
     inkscape:cy="55.477645"
     inkscape:window-x="0"
     inkscape:window-y="0"
     inkscape:window-maximized="1"
     inkscape:current-layer="g842" /><g
     id="g842"
     inkscape:groupmode="layer"
     inkscape:label="FTP_eBrochure"
     transform="matrix(1.3333333,0,0,-1.3333333,-18.255745,917.57002)"><g
       id="g920"
       transform="matrix(1.8094056,0,0,1.8094056,-11.082227,-557.01478)"><g
         id="g922"
         clip-path="url(#clipPath926)"><g
           id="g928"
           transform="translate(14.048209,624.81825)"><path
             d="m 0,0 c -0.209,0.146 -0.356,0.414 -0.356,0.706 0,0.486 0.393,0.863 0.885,0.863 0.246,0 0.418,-0.085 0.541,-0.17 0.651,-0.474 1.364,-0.766 2.2,-0.766 0.775,0 1.242,0.304 1.242,0.803 V 1.46 c 0,0.474 -0.295,0.718 -1.733,1.083 -1.734,0.438 -2.853,0.912 -2.853,2.603 v 0.025 c 0,1.545 1.254,2.567 3.013,2.567 1.044,0 1.954,-0.268 2.729,-0.755 C 5.877,6.862 6.086,6.606 6.086,6.241 6.086,5.755 5.692,5.377 5.201,5.377 5.016,5.377 4.869,5.426 4.721,5.511 4.094,5.876 3.504,6.083 2.914,6.083 2.188,6.083 1.807,5.755 1.807,5.341 V 5.317 c 0,-0.56 0.369,-0.743 1.857,-1.12 C 5.41,3.747 6.393,3.127 6.393,1.643 V 1.618 c 0,-1.691 -1.303,-2.64 -3.159,-2.64 C 2.103,-1.022 0.959,-0.681 0,0"
             style="fill:#003a5d;fill-opacity:1;fill-rule:nonzero;stroke:none"
             id="path930"
             inkscape:connector-curvature="0" /></g><g
           id="g932"
           transform="translate(22.176809,631.57045)"><path
             d="M 0,0 C 0,0.523 0.418,0.937 0.947,0.937 1.475,0.937 1.893,0.523 1.893,0 V -6.789 C 1.893,-7.312 1.475,-7.725 0.947,-7.725 0.418,-7.725 0,-7.312 0,-6.789 Z"
             style="fill:#003a5d;fill-opacity:1;fill-rule:nonzero;stroke:none"
             id="path934"
             inkscape:connector-curvature="0" /></g><g
           id="g936"
           transform="translate(26.222309,631.54605)"><path
             d="m 0,0 c 0,0.523 0.418,0.937 0.947,0.937 h 0.197 c 0.454,0 0.725,-0.219 0.983,-0.548 l 3.651,-4.744 v 4.392 c 0,0.51 0.419,0.924 0.935,0.924 0.516,0 0.934,-0.414 0.934,-0.924 V -6.74 c 0,-0.523 -0.418,-0.937 -0.946,-0.937 H 6.639 c -0.455,0 -0.725,0.219 -0.984,0.548 l -3.786,4.915 v -4.563 c 0,-0.51 -0.418,-0.924 -0.935,-0.924 C 0.418,-7.701 0,-7.287 0,-6.777 Z"
             style="fill:#003a5d;fill-opacity:1;fill-rule:nonzero;stroke:none"
             id="path938"
             inkscape:connector-curvature="0" /></g><g
           id="g940"
           transform="translate(35.556109,628.15175)"><path
             d="M 0,0 V 0.024 C 0,2.445 1.905,4.429 4.512,4.429 5.815,4.429 6.676,4.136 7.45,3.601 7.635,3.467 7.844,3.212 7.844,2.847 7.844,2.336 7.426,1.922 6.909,1.922 6.639,1.922 6.467,2.019 6.331,2.117 5.815,2.482 5.262,2.701 4.451,2.701 3.073,2.701 1.979,1.496 1.979,0.049 V 0.024 c 0,-1.557 1.082,-2.701 2.607,-2.701 0.688,0 1.303,0.171 1.782,0.511 v 1.217 H 5.09 c -0.455,0 -0.824,0.353 -0.824,0.803 0,0.45 0.369,0.815 0.824,0.815 H 7.254 C 7.782,0.669 8.2,0.256 8.2,-0.268 V -2.336 C 8.2,-2.883 7.991,-3.26 7.536,-3.528 6.836,-3.954 5.815,-4.38 4.524,-4.38 1.844,-4.38 0,-2.518 0,0"
             style="fill:#003a5d;fill-opacity:1;fill-rule:nonzero;stroke:none"
             id="path942"
             inkscape:connector-curvature="0" /></g><g
           id="g944"
           transform="translate(45.098809,625.12245)"><path
             d="m 0,0 3,6.703 c 0.209,0.463 0.59,0.743 1.106,0.743 h 0.111 c 0.516,0 0.885,-0.28 1.094,-0.743 L 8.311,0 c 0.061,-0.134 0.098,-0.256 0.098,-0.377 0,-0.499 -0.393,-0.9 -0.897,-0.9 -0.443,0 -0.738,0.255 -0.91,0.644 L 6.024,0.705 H 2.238 L 1.635,-0.694 c -0.16,-0.364 -0.48,-0.583 -0.873,-0.583 -0.492,0 -0.873,0.389 -0.873,0.875 0,0.134 0.05,0.268 0.111,0.402 M 5.323,2.36 4.131,5.171 2.938,2.36 Z"
             style="fill:#003a5d;fill-opacity:1;fill-rule:nonzero;stroke:none"
             id="path946"
             inkscape:connector-curvature="0" /></g><g
           id="g948"
           transform="translate(54.997809,631.49735)"><path
             d="m 0,0 c 0,0.523 0.418,0.937 0.947,0.937 h 2.569 c 2.053,0 3.295,-1.205 3.295,-2.944 v -0.025 c 0,-1.971 -1.549,-2.993 -3.479,-2.993 H 1.893 V -6.716 C 1.893,-7.239 1.475,-7.652 0.947,-7.652 0.418,-7.652 0,-7.239 0,-6.716 Z m 3.393,-3.358 c 0.947,0 1.5,0.56 1.5,1.29 v 0.024 c 0,0.84 -0.59,1.29 -1.537,1.29 H 1.893 v -2.604 z"
             style="fill:#003a5d;fill-opacity:1;fill-rule:nonzero;stroke:none"
             id="path950"
             inkscape:connector-curvature="0" /></g><g
           id="g952"
           transform="translate(62.831409,628.15175)"><path
             d="m 0,0 v 0.024 c 0,2.421 1.93,4.405 4.586,4.405 2.655,0 4.561,-1.959 4.561,-4.38 V 0.024 C 9.147,-2.397 7.217,-4.38 4.561,-4.38 1.905,-4.38 0,-2.421 0,0 m 7.167,0 v 0.024 c 0,1.46 -1.081,2.677 -2.606,2.677 -1.524,0 -2.582,-1.192 -2.582,-2.652 V 0.024 c 0,-1.46 1.082,-2.676 2.607,-2.676 1.524,0 2.581,1.192 2.581,2.652"
             style="fill:#003a5d;fill-opacity:1;fill-rule:nonzero;stroke:none"
             id="path954"
             inkscape:connector-curvature="0" /></g><g
           id="g956"
           transform="translate(73.664909,631.49735)"><path
             d="m 0,0 c 0,0.523 0.418,0.937 0.947,0.937 h 2.987 c 1.095,0 1.943,-0.304 2.508,-0.864 0.48,-0.474 0.738,-1.144 0.738,-1.946 v -0.025 c 0,-1.338 -0.676,-2.165 -1.721,-2.591 l 1.315,-1.582 c 0.185,-0.231 0.308,-0.426 0.308,-0.718 0,-0.523 -0.443,-0.863 -0.898,-0.863 -0.43,0 -0.713,0.206 -0.934,0.486 L 3.406,-4.854 H 1.893 V -6.716 C 1.893,-7.239 1.475,-7.652 0.947,-7.652 0.418,-7.652 0,-7.239 0,-6.716 Z m 3.811,-3.2 c 0.922,0 1.451,0.487 1.451,1.205 v 0.024 c 0,0.803 -0.565,1.217 -1.487,1.217 H 1.893 V -3.2 Z"
             style="fill:#003a5d;fill-opacity:1;fill-rule:nonzero;stroke:none"
             id="path958"
             inkscape:connector-curvature="0" /></g><g
           id="g960"
           transform="translate(82.555509,624.85475)"><path
             d="m 0,0 v 6.643 c 0,0.523 0.418,0.936 0.947,0.936 h 4.77 C 6.184,7.579 6.565,7.202 6.565,6.74 6.565,6.278 6.184,5.913 5.717,5.913 H 1.881 V 4.185 h 3.283 c 0.467,0 0.848,-0.377 0.848,-0.839 0,-0.463 -0.381,-0.828 -0.848,-0.828 H 1.881 V 0.73 h 3.897 c 0.468,0 0.849,-0.377 0.849,-0.839 0,-0.463 -0.381,-0.828 -0.849,-0.828 H 0.947 C 0.418,-0.937 0,-0.523 0,0"
             style="fill:#003a5d;fill-opacity:1;fill-rule:nonzero;stroke:none"
             id="path962"
             inkscape:connector-curvature="0" /></g><g
           id="g964"
           transform="translate(94.348509,627.56785)"><path
             d="m 0,0 v 4.003 c 0,0.523 0.418,0.936 0.947,0.936 0.528,0 0.946,-0.413 0.946,-0.936 V 0.048 c 0,-1.386 0.701,-2.104 1.857,-2.104 1.155,0 1.856,0.693 1.856,2.044 v 4.015 c 0,0.523 0.418,0.936 0.947,0.936 0.529,0 0.946,-0.413 0.946,-0.936 V 0.061 c 0,-2.58 -1.463,-3.845 -3.774,-3.845 C 1.414,-3.784 0,-2.506 0,0"
             style="fill:#003a5d;fill-opacity:1;fill-rule:nonzero;stroke:none"
             id="path966"
             inkscape:connector-curvature="0" /></g><g
           id="g968"
           transform="translate(103.78051,631.54605)"><path
             d="m 0,0 c 0,0.523 0.418,0.937 0.947,0.937 h 0.196 c 0.455,0 0.726,-0.219 0.984,-0.548 l 3.651,-4.744 v 4.392 c 0,0.51 0.419,0.924 0.935,0.924 0.516,0 0.934,-0.414 0.934,-0.924 V -6.74 c 0,-0.523 -0.418,-0.937 -0.946,-0.937 H 6.639 c -0.455,0 -0.725,0.219 -0.984,0.548 l -3.786,4.915 v -4.563 c 0,-0.51 -0.418,-0.924 -0.935,-0.924 C 0.418,-7.701 0,-7.287 0,-6.777 Z"
             style="fill:#003a5d;fill-opacity:1;fill-rule:nonzero;stroke:none"
             id="path970"
             inkscape:connector-curvature="0" /></g><g
           id="g972"
           transform="translate(113.58141,631.57045)"><path
             d="M 0,0 C 0,0.523 0.418,0.937 0.947,0.937 1.475,0.937 1.893,0.523 1.893,0 V -6.789 C 1.893,-7.312 1.475,-7.725 0.947,-7.725 0.418,-7.725 0,-7.312 0,-6.789 Z"
             style="fill:#003a5d;fill-opacity:1;fill-rule:nonzero;stroke:none"
             id="path974"
             inkscape:connector-curvature="0" /></g><g
           id="g976"
           transform="translate(119.92601,624.52625)"><path
             d="m 0,0 -2.791,6.606 c -0.061,0.146 -0.11,0.292 -0.11,0.45 0,0.523 0.418,0.925 0.946,0.925 0.492,0 0.812,-0.28 0.959,-0.657 L 1.156,1.813 3.332,7.385 c 0.123,0.304 0.455,0.596 0.91,0.596 0.516,0 0.934,-0.39 0.934,-0.9 0,-0.146 -0.049,-0.305 -0.098,-0.414 L 2.262,0 C 2.065,-0.462 1.709,-0.742 1.193,-0.742 H 1.07 C 0.553,-0.742 0.197,-0.462 0,0"
             style="fill:#003a5d;fill-opacity:1;fill-rule:nonzero;stroke:none"
             id="path978"
             inkscape:connector-curvature="0" /></g><g
           id="g980"
           transform="translate(126.55481,624.85475)"><path
             d="m 0,0 v 6.643 c 0,0.523 0.418,0.936 0.947,0.936 h 4.77 C 6.184,7.579 6.565,7.202 6.565,6.74 6.565,6.278 6.184,5.913 5.717,5.913 H 1.881 V 4.185 h 3.283 c 0.467,0 0.848,-0.377 0.848,-0.839 0,-0.463 -0.381,-0.828 -0.848,-0.828 H 1.881 V 0.73 h 3.897 c 0.467,0 0.849,-0.377 0.849,-0.839 0,-0.463 -0.382,-0.828 -0.849,-0.828 H 0.947 C 0.418,-0.937 0,-0.523 0,0"
             style="fill:#003a5d;fill-opacity:1;fill-rule:nonzero;stroke:none"
             id="path982"
             inkscape:connector-curvature="0" /></g><g
           id="g984"
           transform="translate(134.79381,631.49735)"><path
             d="m 0,0 c 0,0.523 0.418,0.937 0.947,0.937 h 2.987 c 1.095,0 1.943,-0.304 2.508,-0.864 0.48,-0.474 0.738,-1.144 0.738,-1.946 v -0.025 c 0,-1.338 -0.676,-2.165 -1.721,-2.591 l 1.315,-1.582 c 0.185,-0.231 0.308,-0.426 0.308,-0.718 0,-0.523 -0.443,-0.863 -0.898,-0.863 -0.43,0 -0.713,0.206 -0.934,0.486 L 3.406,-4.854 H 1.893 V -6.716 C 1.893,-7.239 1.475,-7.652 0.947,-7.652 0.418,-7.652 0,-7.239 0,-6.716 Z m 3.811,-3.2 c 0.922,0 1.451,0.487 1.451,1.205 v 0.024 c 0,0.803 -0.565,1.217 -1.487,1.217 H 1.893 V -3.2 Z"
             style="fill:#003a5d;fill-opacity:1;fill-rule:nonzero;stroke:none"
             id="path986"
             inkscape:connector-curvature="0" /></g><g
           id="g988"
           transform="translate(143.51261,624.81825)"><path
             d="m 0,0 c -0.209,0.146 -0.356,0.414 -0.356,0.706 0,0.486 0.393,0.863 0.885,0.863 0.246,0 0.418,-0.085 0.541,-0.17 0.651,-0.474 1.364,-0.766 2.2,-0.766 0.775,0 1.242,0.304 1.242,0.803 V 1.46 c 0,0.474 -0.295,0.718 -1.733,1.083 -1.734,0.438 -2.853,0.912 -2.853,2.603 v 0.025 c 0,1.545 1.254,2.567 3.013,2.567 1.044,0 1.954,-0.268 2.729,-0.755 C 5.877,6.862 6.086,6.606 6.086,6.241 6.086,5.755 5.692,5.377 5.201,5.377 5.016,5.377 4.869,5.426 4.721,5.511 4.094,5.876 3.504,6.083 2.914,6.083 2.188,6.083 1.807,5.755 1.807,5.341 V 5.317 c 0,-0.56 0.369,-0.743 1.857,-1.12 C 5.41,3.747 6.393,3.127 6.393,1.643 V 1.618 c 0,-1.691 -1.303,-2.64 -3.16,-2.64 C 2.102,-1.022 0.959,-0.681 0,0"
             style="fill:#003a5d;fill-opacity:1;fill-rule:nonzero;stroke:none"
             id="path990"
             inkscape:connector-curvature="0" /></g><g
           id="g992"
           transform="translate(151.64121,631.57045)"><path
             d="M 0,0 C 0,0.523 0.418,0.937 0.947,0.937 1.475,0.937 1.893,0.523 1.893,0 V -6.789 C 1.893,-7.312 1.475,-7.725 0.947,-7.725 0.418,-7.725 0,-7.312 0,-6.789 Z"
             style="fill:#003a5d;fill-opacity:1;fill-rule:nonzero;stroke:none"
             id="path994"
             inkscape:connector-curvature="0" /></g><g
           id="g996"
           transform="translate(157.69081,630.70655)"><path
             d="m 0,0 h -1.819 c -0.48,0 -0.873,0.389 -0.873,0.864 0,0.474 0.393,0.864 0.873,0.864 h 5.532 c 0.479,0 0.873,-0.39 0.873,-0.864 C 4.586,0.389 4.192,0 3.713,0 H 1.893 V -5.925 C 1.893,-6.448 1.475,-6.862 0.947,-6.862 0.418,-6.862 0,-6.448 0,-5.925 Z"
             style="fill:#003a5d;fill-opacity:1;fill-rule:nonzero;stroke:none"
             id="path998"
             inkscape:connector-curvature="0" /></g><g
           id="g1000"
           transform="translate(165.90531,627.20285)"><path
             d="m 0,0 -2.778,3.735 c -0.136,0.183 -0.234,0.401 -0.234,0.669 0,0.499 0.418,0.9 0.947,0.9 0.43,0 0.7,-0.231 0.934,-0.571 l 2.09,-2.981 2.127,3.005 c 0.233,0.341 0.516,0.56 0.91,0.56 0.578,0 0.922,-0.402 0.922,-0.913 0,-0.255 -0.123,-0.486 -0.246,-0.657 L 1.893,0.037 V -2.421 C 1.893,-2.944 1.475,-3.358 0.947,-3.358 0.418,-3.358 0,-2.944 0,-2.421 Z"
             style="fill:#003a5d;fill-opacity:1;fill-rule:nonzero;stroke:none"
             id="path1002"
             inkscape:connector-curvature="0" /></g><g
           id="g1004"
           transform="translate(13.839409,613.79605)"><path
             d="m 0,0 v 0.024 c 0,2.421 1.93,4.405 4.586,4.405 2.655,0 4.561,-1.959 4.561,-4.38 V 0.024 C 9.147,-2.397 7.217,-4.38 4.561,-4.38 1.906,-4.38 0,-2.421 0,0 m 7.167,0 v 0.024 c 0,1.46 -1.081,2.677 -2.606,2.677 -1.524,0 -2.582,-1.192 -2.582,-2.652 V 0.024 c 0,-1.46 1.082,-2.676 2.607,-2.676 1.524,0 2.581,1.192 2.581,2.652"
             style="fill:#003a5d;fill-opacity:1;fill-rule:nonzero;stroke:none"
             id="path1006"
             inkscape:connector-curvature="0" /></g><g
           id="g1008"
           transform="translate(24.672909,617.14165)"><path
             d="m 0,0 c 0,0.523 0.418,0.937 0.947,0.937 h 4.819 c 0.48,0 0.861,-0.377 0.861,-0.852 0,-0.474 -0.381,-0.851 -0.861,-0.851 H 1.893 v -1.813 h 3.32 c 0.479,0 0.86,-0.377 0.86,-0.852 0,-0.474 -0.381,-0.851 -0.86,-0.851 H 1.893 V -6.715 C 1.893,-7.239 1.475,-7.652 0.947,-7.652 0.418,-7.652 0,-7.239 0,-6.715 Z"
             style="fill:#003a5d;fill-opacity:1;fill-rule:nonzero;stroke:none"
             id="path1010"
             inkscape:connector-curvature="0" /></g><g
           id="g1012"
           transform="translate(36.256609,610.46255)"><path
             d="m 0,0 c -0.209,0.146 -0.356,0.414 -0.356,0.706 0,0.486 0.393,0.863 0.885,0.863 0.246,0 0.418,-0.085 0.541,-0.17 0.651,-0.474 1.364,-0.766 2.2,-0.766 0.775,0 1.242,0.304 1.242,0.803 V 1.46 c 0,0.474 -0.295,0.718 -1.733,1.083 -1.734,0.438 -2.853,0.912 -2.853,2.603 v 0.025 c 0,1.545 1.254,2.567 3.013,2.567 1.044,0 1.954,-0.268 2.729,-0.755 C 5.877,6.862 6.086,6.606 6.086,6.241 6.086,5.755 5.692,5.377 5.201,5.377 5.016,5.377 4.869,5.426 4.721,5.511 4.094,5.876 3.504,6.083 2.914,6.083 2.188,6.083 1.807,5.755 1.807,5.341 V 5.317 c 0,-0.56 0.369,-0.743 1.857,-1.12 C 5.41,3.747 6.393,3.127 6.393,1.643 V 1.618 c 0,-1.691 -1.303,-2.64 -3.16,-2.64 C 2.102,-1.022 0.959,-0.681 0,0"
             style="fill:#003a5d;fill-opacity:1;fill-rule:nonzero;stroke:none"
             id="path1014"
             inkscape:connector-curvature="0" /></g><g
           id="g1016"
           transform="translate(43.918009,613.79605)"><path
             d="m 0,0 v 0.024 c 0,2.421 1.93,4.405 4.586,4.405 2.655,0 4.561,-1.959 4.561,-4.38 V 0.024 C 9.147,-2.397 7.217,-4.38 4.561,-4.38 1.905,-4.38 0,-2.421 0,0 m 7.167,0 v 0.024 c 0,1.46 -1.081,2.677 -2.606,2.677 -1.524,0 -2.582,-1.192 -2.582,-2.652 V 0.024 c 0,-1.46 1.082,-2.676 2.607,-2.676 1.524,0 2.581,1.192 2.581,2.652"
             style="fill:#003a5d;fill-opacity:1;fill-rule:nonzero;stroke:none"
             id="path1018"
             inkscape:connector-curvature="0" /></g><g
           id="g1020"
           transform="translate(54.370609,613.79605)"><path
             d="M 0,0 V 0.024 C 0,2.445 1.844,4.429 4.487,4.429 5.778,4.429 6.651,4.088 7.364,3.565 7.561,3.419 7.733,3.151 7.733,2.823 7.733,2.312 7.315,1.91 6.799,1.91 6.54,1.91 6.368,2.007 6.233,2.093 5.704,2.482 5.151,2.701 4.475,2.701 3.024,2.701 1.979,1.509 1.979,0.049 V 0.024 c 0,-1.46 1.021,-2.676 2.496,-2.676 0.799,0 1.328,0.243 1.869,0.669 0.147,0.122 0.344,0.207 0.565,0.207 0.48,0 0.885,-0.39 0.885,-0.864 0,-0.292 -0.147,-0.523 -0.319,-0.669 C 6.7,-3.978 5.791,-4.38 4.414,-4.38 1.881,-4.38 0,-2.445 0,0"
             style="fill:#003a5d;fill-opacity:1;fill-rule:nonzero;stroke:none"
             id="path1022"
             inkscape:connector-curvature="0" /></g><g
           id="g1024"
           transform="translate(63.913009,617.21485)"><path
             d="M 0,0 C 0,0.523 0.418,0.937 0.947,0.937 1.475,0.937 1.893,0.523 1.893,0 V -6.789 C 1.893,-7.312 1.475,-7.725 0.947,-7.725 0.418,-7.725 0,-7.312 0,-6.789 Z"
             style="fill:#003a5d;fill-opacity:1;fill-rule:nonzero;stroke:none"
             id="path1026"
             inkscape:connector-curvature="0" /></g><g
           id="g1028"
           transform="translate(67.479209,610.76685)"><path
             d="m 0,0 3,6.703 c 0.209,0.463 0.59,0.743 1.106,0.743 h 0.111 c 0.516,0 0.885,-0.28 1.094,-0.743 L 8.311,0 c 0.061,-0.134 0.098,-0.256 0.098,-0.377 0,-0.499 -0.393,-0.9 -0.897,-0.9 -0.443,0 -0.738,0.255 -0.91,0.644 L 6.024,0.705 H 2.238 L 1.635,-0.694 c -0.16,-0.364 -0.479,-0.583 -0.873,-0.583 -0.491,0 -0.873,0.389 -0.873,0.875 0,0.134 0.05,0.268 0.111,0.402 M 5.323,2.36 4.131,5.171 2.938,2.36 Z"
             style="fill:#003a5d;fill-opacity:1;fill-rule:nonzero;stroke:none"
             id="path1030"
             inkscape:connector-curvature="0" /></g><g
           id="g1032"
           transform="translate(77.378209,617.21485)"><path
             d="M 0,0 C 0,0.523 0.418,0.937 0.947,0.937 1.475,0.937 1.893,0.523 1.893,0 v -5.949 h 3.504 c 0.48,0 0.861,-0.377 0.861,-0.852 0,-0.474 -0.381,-0.852 -0.861,-0.852 H 0.947 C 0.418,-7.653 0,-7.239 0,-6.716 Z"
             style="fill:#003a5d;fill-opacity:1;fill-rule:nonzero;stroke:none"
             id="path1034"
             inkscape:connector-curvature="0" /></g><g
           id="g1036"
           transform="translate(88.507009,610.46255)"><path
             d="m 0,0 c -0.209,0.146 -0.356,0.414 -0.356,0.706 0,0.486 0.393,0.863 0.885,0.863 0.246,0 0.418,-0.085 0.541,-0.17 0.651,-0.474 1.364,-0.766 2.2,-0.766 0.775,0 1.242,0.304 1.242,0.803 V 1.46 c 0,0.474 -0.295,0.718 -1.733,1.083 -1.734,0.438 -2.853,0.912 -2.853,2.603 v 0.025 c 0,1.545 1.254,2.567 3.013,2.567 1.044,0 1.954,-0.268 2.729,-0.755 C 5.877,6.862 6.086,6.606 6.086,6.241 6.086,5.755 5.692,5.377 5.201,5.377 5.016,5.377 4.869,5.426 4.721,5.511 4.094,5.876 3.504,6.083 2.914,6.083 2.188,6.083 1.807,5.755 1.807,5.341 V 5.317 c 0,-0.56 0.369,-0.743 1.857,-1.12 C 5.41,3.747 6.393,3.127 6.393,1.643 V 1.618 c 0,-1.691 -1.303,-2.64 -3.159,-2.64 C 2.102,-1.022 0.959,-0.681 0,0"
             style="fill:#003a5d;fill-opacity:1;fill-rule:nonzero;stroke:none"
             id="path1038"
             inkscape:connector-curvature="0" /></g><g
           id="g1040"
           transform="translate(96.168209,613.79605)"><path
             d="M 0,0 V 0.024 C 0,2.445 1.844,4.429 4.487,4.429 5.778,4.429 6.651,4.088 7.364,3.565 7.561,3.419 7.733,3.151 7.733,2.823 7.733,2.312 7.315,1.91 6.799,1.91 6.54,1.91 6.368,2.007 6.233,2.093 5.704,2.482 5.151,2.701 4.475,2.701 3.024,2.701 1.979,1.509 1.979,0.049 V 0.024 c 0,-1.46 1.021,-2.676 2.496,-2.676 0.799,0 1.328,0.243 1.869,0.669 0.147,0.122 0.344,0.207 0.565,0.207 0.48,0 0.885,-0.39 0.885,-0.864 0,-0.292 -0.147,-0.523 -0.319,-0.669 C 6.7,-3.978 5.791,-4.38 4.414,-4.38 1.881,-4.38 0,-2.445 0,0"
             style="fill:#003a5d;fill-opacity:1;fill-rule:nonzero;stroke:none"
             id="path1042"
             inkscape:connector-curvature="0" /></g><g
           id="g1044"
           transform="translate(105.71061,617.21485)"><path
             d="M 0,0 C 0,0.523 0.418,0.937 0.947,0.937 1.475,0.937 1.893,0.523 1.893,0 V -6.789 C 1.893,-7.312 1.475,-7.725 0.947,-7.725 0.418,-7.725 0,-7.312 0,-6.789 Z"
             style="fill:#003a5d;fill-opacity:1;fill-rule:nonzero;stroke:none"
             id="path1046"
             inkscape:connector-curvature="0" /></g><g
           id="g1048"
           transform="translate(109.75641,610.49915)"><path
             d="m 0,0 v 6.643 c 0,0.523 0.418,0.936 0.947,0.936 h 4.77 C 6.184,7.579 6.565,7.202 6.565,6.74 6.565,6.278 6.184,5.913 5.717,5.913 H 1.881 V 4.185 h 3.283 c 0.467,0 0.848,-0.377 0.848,-0.839 0,-0.463 -0.381,-0.828 -0.848,-0.828 H 1.881 V 0.73 h 3.897 c 0.468,0 0.849,-0.377 0.849,-0.839 0,-0.463 -0.381,-0.828 -0.849,-0.828 H 0.947 C 0.418,-0.937 0,-0.523 0,0"
             style="fill:#003a5d;fill-opacity:1;fill-rule:nonzero;stroke:none"
             id="path1050"
             inkscape:connector-curvature="0" /></g><g
           id="g1052"
           transform="translate(117.99541,617.19035)"><path
             d="m 0,0 c 0,0.523 0.418,0.937 0.947,0.937 h 0.197 c 0.454,0 0.725,-0.219 0.983,-0.548 l 3.651,-4.744 v 4.392 c 0,0.511 0.419,0.924 0.935,0.924 0.516,0 0.934,-0.413 0.934,-0.924 V -6.74 c 0,-0.523 -0.418,-0.937 -0.946,-0.937 H 6.639 c -0.455,0 -0.725,0.219 -0.983,0.548 L 1.869,-2.214 V -6.776 C 1.869,-7.287 1.451,-7.701 0.934,-7.701 0.418,-7.701 0,-7.287 0,-6.776 Z"
             style="fill:#003a5d;fill-opacity:1;fill-rule:nonzero;stroke:none"
             id="path1054"
             inkscape:connector-curvature="0" /></g><g
           id="g1056"
           transform="translate(127.32941,613.79605)"><path
             d="M 0,0 V 0.024 C 0,2.445 1.844,4.429 4.487,4.429 5.778,4.429 6.651,4.088 7.364,3.565 7.561,3.419 7.733,3.151 7.733,2.823 7.733,2.312 7.315,1.91 6.799,1.91 6.54,1.91 6.368,2.007 6.233,2.093 5.704,2.482 5.151,2.701 4.475,2.701 3.024,2.701 1.979,1.509 1.979,0.049 V 0.024 c 0,-1.46 1.021,-2.676 2.496,-2.676 0.799,0 1.328,0.243 1.869,0.669 0.147,0.122 0.344,0.207 0.565,0.207 0.48,0 0.885,-0.39 0.885,-0.864 0,-0.292 -0.147,-0.523 -0.319,-0.669 C 6.7,-3.978 5.791,-4.38 4.414,-4.38 1.881,-4.38 0,-2.445 0,0"
             style="fill:#003a5d;fill-opacity:1;fill-rule:nonzero;stroke:none"
             id="path1058"
             inkscape:connector-curvature="0" /></g><g
           id="g1060"
           transform="translate(136.78541,610.49915)"><path
             d="m 0,0 v 6.643 c 0,0.523 0.418,0.936 0.947,0.936 h 4.77 C 6.184,7.579 6.565,7.202 6.565,6.74 6.565,6.278 6.184,5.913 5.717,5.913 H 1.881 V 4.185 h 3.283 c 0.467,0 0.848,-0.377 0.848,-0.839 0,-0.463 -0.381,-0.828 -0.848,-0.828 H 1.881 V 0.73 h 3.897 c 0.468,0 0.849,-0.377 0.849,-0.839 0,-0.463 -0.381,-0.828 -0.849,-0.828 H 0.947 C 0.418,-0.937 0,-0.523 0,0"
             style="fill:#003a5d;fill-opacity:1;fill-rule:nonzero;stroke:none"
             id="path1062"
             inkscape:connector-curvature="0" /></g><g
           id="g1064"
           transform="translate(144.85251,610.46255)"><path
             d="m 0,0 c -0.209,0.146 -0.356,0.414 -0.356,0.706 0,0.486 0.393,0.863 0.885,0.863 0.246,0 0.418,-0.085 0.541,-0.17 0.651,-0.474 1.364,-0.766 2.2,-0.766 0.775,0 1.242,0.304 1.242,0.803 V 1.46 c 0,0.474 -0.295,0.718 -1.733,1.083 -1.734,0.438 -2.853,0.912 -2.853,2.603 v 0.025 c 0,1.545 1.254,2.567 3.013,2.567 1.044,0 1.954,-0.268 2.729,-0.755 C 5.877,6.862 6.086,6.606 6.086,6.241 6.086,5.755 5.692,5.377 5.201,5.377 5.016,5.377 4.869,5.426 4.721,5.511 4.094,5.876 3.504,6.083 2.914,6.083 2.188,6.083 1.807,5.755 1.807,5.341 V 5.317 c 0,-0.56 0.369,-0.743 1.857,-1.12 C 5.41,3.747 6.393,3.127 6.393,1.643 V 1.618 c 0,-1.691 -1.303,-2.64 -3.159,-2.64 C 2.102,-1.022 0.959,-0.681 0,0"
             style="fill:#003a5d;fill-opacity:1;fill-rule:nonzero;stroke:none"
             id="path1066"
             inkscape:connector-curvature="0" /></g><g
           id="g1068"
           transform="translate(97.818609,648.23255)"><path
             d="m 0,0 c -0.894,0.632 -1.533,1.706 -1.533,2.971 0,2.022 1.661,3.602 3.705,3.602 1.086,0 1.788,-0.316 2.299,-0.695 3.704,-2.907 7.665,-4.551 12.519,-4.551 4.854,0 7.92,2.276 7.92,5.562 v 0.127 c 0,3.16 -1.789,4.866 -10.092,6.763 -9.517,2.275 -14.882,5.056 -14.882,13.209 v 0.127 c 0,7.585 6.387,12.83 15.266,12.83 5.62,0 10.155,-1.453 14.179,-4.108 0.894,-0.506 1.724,-1.58 1.724,-3.097 0,-2.023 -1.66,-3.603 -3.704,-3.603 -0.767,0 -1.405,0.19 -2.044,0.569 -3.449,2.212 -6.77,3.35 -10.283,3.35 -4.599,0 -7.282,-2.339 -7.282,-5.246 v -0.126 c 0,-3.413 2.044,-4.93 10.667,-6.953 9.453,-2.275 14.307,-5.625 14.307,-12.957 V 7.648 c 0,-8.28 -6.579,-13.21 -15.968,-13.21 C 10.73,-5.562 4.982,-3.666 0,0"
             style="fill:#003a5d;fill-opacity:1;fill-rule:nonzero;stroke:none"
             id="path1070"
             inkscape:connector-curvature="0" /></g><g
           id="g1072"
           transform="translate(138.05631,648.23255)"><path
             d="m 0,0 c -0.894,0.632 -1.533,1.706 -1.533,2.971 0,2.022 1.661,3.602 3.705,3.602 1.086,0 1.788,-0.316 2.299,-0.695 3.705,-2.907 7.665,-4.551 12.519,-4.551 4.854,0 7.92,2.276 7.92,5.562 v 0.127 c 0,3.16 -1.788,4.866 -10.092,6.763 -9.517,2.275 -14.882,5.056 -14.882,13.209 v 0.127 c 0,7.585 6.387,12.83 15.266,12.83 5.62,0 10.155,-1.453 14.179,-4.108 0.894,-0.506 1.724,-1.58 1.724,-3.097 0,-2.023 -1.66,-3.603 -3.704,-3.603 -0.767,0 -1.405,0.19 -2.044,0.569 -3.449,2.212 -6.77,3.35 -10.283,3.35 -4.599,0 -7.281,-2.339 -7.281,-5.246 v -0.126 c 0,-3.413 2.043,-4.93 10.666,-6.953 9.453,-2.275 14.307,-5.625 14.307,-12.957 V 7.648 c 0,-8.28 -6.579,-13.21 -15.968,-13.21 C 10.73,-5.562 4.982,-3.666 0,0"
             style="fill:#003a5d;fill-opacity:1;fill-rule:nonzero;stroke:none"
             id="path1074"
             inkscape:connector-curvature="0" /></g><g
           id="g1076"
           transform="translate(15.224809,648.23255)"><path
             d="m 0,0 c -0.894,0.632 -1.533,1.706 -1.533,2.971 0,2.022 1.661,3.602 3.705,3.602 1.085,0 1.788,-0.316 2.299,-0.695 3.705,-2.907 7.664,-4.551 12.519,-4.551 4.854,0 7.92,2.276 7.92,5.562 v 0.127 c 0,3.16 -1.789,4.866 -10.092,6.763 -9.517,2.275 -14.882,5.056 -14.882,13.209 v 0.127 c 0,7.585 6.387,12.83 15.265,12.83 5.621,0 10.156,-1.453 14.18,-4.108 0.894,-0.506 1.724,-1.58 1.724,-3.097 0,-2.023 -1.66,-3.603 -3.704,-3.603 -0.767,0 -1.405,0.19 -2.044,0.569 -3.449,2.212 -6.771,3.35 -10.283,3.35 -4.599,0 -7.282,-2.339 -7.282,-5.246 v -0.126 c 0,-3.413 2.044,-4.93 10.667,-6.953 9.453,-2.275 14.307,-5.625 14.307,-12.957 V 7.648 c 0,-8.28 -6.579,-13.21 -15.968,-13.21 C 10.73,-5.562 4.982,-3.666 0,0"
             style="fill:#003a5d;fill-opacity:1;fill-rule:nonzero;stroke:none"
             id="path1078"
             inkscape:connector-curvature="0" /></g><g
           id="g1080"
           transform="translate(83.606709,646.83475)"><path
             d="m 0,0 c -3.22,-2.795 -6.659,-4.164 -11.469,-4.1 -4.335,0.057 -8.017,1.498 -11.046,4.496 -3.029,2.997 -4.544,6.592 -4.544,10.784 v 26.448 c 0,0.94 0.356,1.763 1.069,2.468 0.713,0.706 1.594,1.058 2.643,1.058 1.049,0 1.93,-0.352 2.643,-1.058 0.713,-0.705 1.069,-1.528 1.069,-2.468 V 11.18 c 0,-2.292 0.807,-4.236 2.42,-5.833 1.614,-1.597 3.529,-2.395 5.746,-2.395 2.218,0 4.4,0.81 6.056,2.305 1.754,1.582 1.527,2.769 1.709,3.731 0.171,0.902 0.344,1.402 0.794,1.903 0.669,0.746 1.448,1.146 2.497,1.146 1.049,0 2.017,-0.357 2.73,-1.063 C 3.03,10.269 3.41,9.43 3.41,7.99 3.41,7.99 3.667,3.183 0,0"
             style="fill:#ee3124;fill-opacity:1;fill-rule:nonzero;stroke:none"
             id="path1082"
             inkscape:connector-curvature="0" /></g><g
           id="g1084"
           transform="translate(87.728609,684.33015)"><path
             d="m 0,0 c 0,-2.021 -1.655,-3.659 -3.697,-3.659 -2.042,0 -3.698,1.638 -3.698,3.659 0,2.021 1.656,3.659 3.698,3.659 C -1.655,3.659 0,2.021 0,0"
             style="fill:#ee3124;fill-opacity:1;fill-rule:nonzero;stroke:none"
             id="path1086"
             inkscape:connector-curvature="0" /></g><g
           id="g1088"
           transform="translate(87.728609,674.65245)"><path
             d="m 0,0 c 0,-2.021 -1.655,-3.659 -3.697,-3.659 -2.042,0 -3.698,1.638 -3.698,3.659 0,2.021 1.656,3.659 3.698,3.659 C -1.655,3.659 0,2.021 0,0"
             style="fill:#ee3124;fill-opacity:1;fill-rule:nonzero;stroke:none"
             id="path1090"
             inkscape:connector-curvature="0" /></g><g
           id="g1092"
           transform="translate(87.728609,664.97455)"><path
             d="m 0,0 c 0,-2.021 -1.655,-3.659 -3.697,-3.659 -2.042,0 -3.698,1.638 -3.698,3.659 0,2.021 1.656,3.659 3.698,3.659 C -1.655,3.659 0,2.021 0,0"
             style="fill:#ee3124;fill-opacity:1;fill-rule:nonzero;stroke:none"
             id="path1094"
             inkscape:connector-curvature="0" /></g></g></g></g></svg>