<?xml version="1.0" encoding="UTF-8" standalone="no"?>
<!-- Created with Inkscape (http://www.inkscape.org/) -->
<svg
   xmlns:svg="http://www.w3.org/2000/svg"
   xmlns="http://www.w3.org/2000/svg"
   version="1.0"
   width="956.69287"
   height="761.81104"
   id="svg2">
  <defs
     id="defs4" />
  <g
     transform="translate(-780.37245,-369.20397)"
     id="layer1">
    <g
       transform="matrix(2.7568503,0,0,2.7568503,-1335.5646,-1827.372)"
       id="g4475">
      <path
         d="M 988.00869,866.53018 C 997.31644,845.11188 1014.0662,843.9322 1020.7051,850.51247 C 1027.0929,856.84175 1025.0138,869.06942 1012.8865,885.35486 C 1005.7959,894.90525 994.9529,908.7393 985.75391,920.97953 C 980.03957,902.38493 983.13937,877.72041 988.00869,866.53018 M 981.63339,979.58285 C 977.32882,991.41746 969.37644,988.5434 966.70333,975.67167 C 965.3605,969.19999 965.66588,961.45259 969.70691,951.99005 C 971.7358,947.20858 974.55531,943.01695 978.20312,938.98429 C 984.46128,950.45898 987.08419,964.56075 981.63339,979.58285 M 1099.4215,942.99185 C 1092.5735,926.95741 1065.5915,913.00623 1035.9112,916.02654 C 1048.3606,907.78133 1062.8138,903.32198 1066.8716,902.58991 C 1067.5367,902.47277 1067.5242,901.87457 1066.8716,901.93313 C 1026.8628,906.20424 1001.324,924.91598 994.03677,929.19964 C 993.48876,929.52175 993.70211,929.96517 994.16226,929.89406 C 1000.2656,928.92772 1036.0284,923.25104 1056.2754,934.2823 C 1079.4506,946.88647 1064.4704,976.53743 1034.1417,965.8492 C 1019.4961,960.6745 1001.1274,949.29603 989.99574,930.80601 C 989.66107,930.24964 989.3808,929.64725 989.07542,929.06159 C 993.08298,925.87813 997.58417,922.58172 1002.763,918.94646 C 1025.5116,902.98313 1050.1469,883.32598 1060.4168,857.48179 C 1069.2351,835.29795 1059.5843,809.60017 1037.6473,809.60017 C 999.57541,809.60017 972.87364,849.46247 972.87364,893.39091 C 972.87364,904.6648 975.10332,916.34029 980.43698,928.14964 C 979.75511,929.06996 979.0565,930.02374 978.41647,930.91059 C 975.74754,927.04526 972.46368,922.7867 968.28042,918.03451 C 956.39996,904.52257 943.32726,898.48194 931.76054,905.65205 C 924.29342,910.27874 921.51573,923.91618 933.40038,931.89366 C 947.12148,941.07174 964.19756,938.51576 971.73998,936.26935 C 972.32145,936.0811 972.28799,935.45361 971.63958,935.55401 C 963.62027,936.73788 948.41829,933.75939 941.92587,928.67255 C 930.82349,919.98391 939.34061,902.83253 961.4366,919.51957 C 966.65313,923.45602 971.65213,928.67255 975.6848,934.77593 C 975.12005,935.58748 974.49257,936.47015 973.98639,937.21058 C 964.75811,950.8773 958.06908,963.01295 961.19816,981.26887 C 965.03421,1003.5948 986.19315,1012.7896 992.63956,984.54855 C 996.88975,965.8994 990.01665,952.31634 985.86267,943.60679 C 984.71646,941.19305 983.29833,938.5325 981.49953,935.59585 C 982.06427,935.04784 982.70013,934.49983 983.3067,933.95182 C 985.90451,938.77094 989.02104,943.60679 992.77342,948.42591 C 1003.1228,961.7245 1024.629,984.49835 1059.3208,984.72425 C 1095.1964,984.96252 1107.2149,961.20578 1099.4215,942.99185"
         id="path2508"
         style="fill:#745399;fill-opacity:1;fill-rule:nonzero;stroke:none" />
      <path
         d="M 796.03878,1046.5528 C 796.03878,1049.8783 796.41527,1060.2739 786.39217,1060.2739 C 784.39258,1060.2739 782.09596,1059.9516 780.37246,1059.0357 L 780.37246,1051.054 C 781.34298,1052.3341 782.89497,1053.3003 784.56827,1053.3003 C 788.32066,1053.3003 788.04038,1049.2301 788.04038,1046.5528 L 788.04038,1019.2027 L 796.03878,1019.2027 L 796.03878,1046.5528 z"
         id="path2510"
         style="fill:#898989;fill-opacity:1;fill-rule:nonzero;stroke:none" />
      <path
         d="M 813.3031,1035.7138 L 812.39533,1029.5979 L 812.2782,1029.5979 L 811.42063,1035.7138 L 809.70131,1046.4983 L 815.34035,1046.4983 L 813.3031,1035.7138 z M 816.83796,1019.2027 L 826.54313,1059.6297 L 818.02182,1059.6297 L 816.51585,1052.8234 L 808.42123,1052.8234 L 806.97801,1059.6297 L 799.03818,1059.6297 L 808.42123,1019.2027 L 816.83796,1019.2027 z"
         id="path2512"
         style="fill:#898989;fill-opacity:1;fill-rule:nonzero;stroke:none" />
      <path
         d="M 837.75845,1036.4712 C 841.60705,1036.6218 843.81582,1035.1744 843.81582,1031.0413 C 843.81582,1028.1505 842.69052,1025.7912 839.26024,1025.7912 L 837.75845,1025.7912 L 837.75845,1036.4712 z M 829.76424,1059.6297 L 829.76424,1019.2027 L 838.08475,1019.2027 C 839.78733,1019.2027 851.80585,1018.1234 851.80585,1031.1541 C 851.80585,1038.7174 846.93235,1043.0596 839.52379,1043.0596 L 837.75845,1042.9592 L 837.75845,1059.6297 L 829.76424,1059.6297"
         id="path2514"
         style="fill:#898989;fill-opacity:1;fill-rule:nonzero;stroke:none" />
      <path
         d="M 863.60265,1035.7138 L 862.6907,1029.5979 L 862.58611,1029.5979 L 861.72855,1035.7138 L 860.00923,1046.4983 L 865.6399,1046.4983 L 863.60265,1035.7138 z M 867.1375,1019.2027 L 876.85104,1059.6297 L 868.31718,1059.6297 L 866.81121,1052.8234 L 858.72078,1052.8234 L 857.27337,1059.6297 L 849.33772,1059.6297 L 858.72078,1019.2027 L 867.1375,1019.2027 z"
         id="path2516"
         style="fill:#898989;fill-opacity:1;fill-rule:nonzero;stroke:none" />
      <path
         d="M 886.65661,1019.2027 L 896.6295,1043.5994 L 896.74245,1043.499 C 896.26556,1041.562 896.09823,1039.4704 896.09823,1037.3831 L 896.09823,1019.2027 L 904.08408,1019.2027 L 904.08408,1059.6297 L 896.53329,1059.6297 L 886.65661,1035.233 L 886.56039,1035.3374 L 886.92433,1039.4162 L 886.9829,1041.0768 L 886.9829,1059.6297 L 878.99705,1059.6297 L 878.99705,1019.2027 L 886.65661,1019.2027 z"
         id="path2518"
         style="fill:#898989;fill-opacity:1;fill-rule:nonzero;stroke:none" />
      <path
         d="M 923.01334,1022.637 L 913.84363,1022.637 L 913.84363,1036.9019 L 922.53645,1036.9019 L 922.53645,1040.3281 L 913.84363,1040.3281 L 913.84363,1059.6297 L 910.09961,1059.6297 L 910.09961,1019.2027 L 923.01334,1019.2027 L 923.01334,1022.637 z"
         id="path2520"
         style="fill:#898989;fill-opacity:1;fill-rule:nonzero;stroke:none" />
      <path
         d="M 930.0956,1039.4162 C 930.0956,1046.5528 930.36333,1056.5174 936.15715,1056.5174 C 941.94678,1056.5174 942.2187,1046.5528 942.2187,1039.4162 C 942.2187,1032.2796 941.94678,1022.3067 936.15715,1022.3067 C 930.36333,1022.039 930.0956,1032.2796 930.0956,1039.4162 M 946.07566,1039.4162 C 946.07566,1046.9752 945.52766,1060.1692 936.15715,1060.1692 C 927.30118,1060.1692 926.23445,1048.8493 926.23445,1039.4162 C 926.23445,1029.1756 927.5731,1018.6629 936.15715,1018.6629 C 945.26411,1018.6629 946.07566,1030.5142 946.07566,1039.4162"
         id="path2522"
         style="fill:#898989;fill-opacity:1;fill-rule:nonzero;stroke:none" />
      <path
         d="M 967.04218,1046.8246 C 967.04218,1054.2708 966.45234,1060.1692 958.5627,1060.1692 C 950.46809,1060.1692 950.0916,1054.0532 950.0916,1046.8246 L 950.0916,1019.2027 L 953.84817,1019.2027 L 953.84817,1046.5947 C 953.84817,1053.3003 954.22466,1056.5174 958.5627,1056.5174 C 962.85473,1056.5174 963.29816,1053.3003 963.29816,1046.5947 L 963.29816,1019.2027 L 967.04218,1019.2027 L 967.04218,1046.8246 z"
         id="path2524"
         style="fill:#898989;fill-opacity:1;fill-rule:nonzero;stroke:none" />
      <path
         d="M 989.0796,1059.6297 L 985.81247,1059.6297 L 976.69296,1032.4469 C 976.09894,1030.786 975.77683,1028.9581 975.28739,1027.2386 L 975.08241,1027.2386 C 975.24555,1029.874 975.51328,1032.4469 975.51328,1035.074 L 975.51328,1059.6297 L 972.24197,1059.6297 L 972.24197,1019.2027 L 975.51328,1019.2027 L 984.78757,1047.2931 C 985.27702,1048.6903 985.64096,1050.0791 986.02164,1051.4847 L 986.17642,1051.4847 C 986.0802,1049.711 985.81247,1047.8955 985.81247,1046.1178 L 985.81247,1019.2027 L 989.0796,1019.2027 L 989.0796,1059.6297 z"
         id="path2526"
         style="fill:#898989;fill-opacity:1;fill-rule:nonzero;stroke:none" />
      <path
         d="M 998.24513,1056.1994 L 999.32023,1056.1994 C 1006.5656,1056.1994 1007.4692,1051.1166 1007.4692,1039.4162 C 1007.4692,1025.5234 1006.0302,1022.637 998.89772,1022.637 L 998.24513,1022.637 L 998.24513,1056.1994 z M 994.49274,1019.2027 L 998.56306,1019.2027 C 1006.2854,1019.2027 1011.3262,1020.1648 1011.3262,1039.4162 C 1011.3262,1055.2373 1008.7618,1059.6297 998.83079,1059.6297 L 994.49274,1059.6297 L 994.49274,1019.2027"
         id="path2528"
         style="fill:#898989;fill-opacity:1;fill-rule:nonzero;stroke:none" />
      <path
         d="M 1025.9216,1048.0544 L 1023.2359,1032.5597 C 1022.7549,1029.8071 1022.529,1027.0294 1022.2194,1024.2936 L 1022.0102,1024.2936 C 1021.6296,1027.0294 1021.366,1029.8071 1020.931,1032.5597 L 1018.5716,1048.0544 L 1025.9216,1048.0544 z M 1032.0333,1059.6297 L 1028.0132,1059.6297 L 1026.5114,1051.3258 L 1017.9274,1051.3258 L 1016.4841,1059.6297 L 1012.4557,1059.6297 L 1020.3829,1019.2027 L 1023.9304,1019.2027 L 1032.0333,1059.6297"
         id="path2530"
         style="fill:#898989;fill-opacity:1;fill-rule:nonzero;stroke:none" />
      <path
         d="M 1046.9927,1022.637 L 1040.9312,1022.637 L 1040.9312,1059.6297 L 1037.1746,1059.6297 L 1037.1746,1022.637 L 1031.113,1022.637 L 1031.113,1019.2027 L 1046.9927,1019.2027 L 1046.9927,1022.637 z"
         id="path2532"
         style="fill:#898989;fill-opacity:1;fill-rule:nonzero;stroke:none" />
      <path
         d="M 1055.4052,1059.6297 L 1051.657,1059.6297 L 1051.657,1019.2027 L 1055.4052,1019.2027 L 1055.4052,1059.6297 z"
         id="path2534"
         style="fill:#898989;fill-opacity:1;fill-rule:nonzero;stroke:none" />
      <path
         d="M 1063.4538,1039.4162 C 1063.4538,1046.5528 1063.7258,1056.5174 1069.5154,1056.5174 C 1075.2925,1056.5174 1075.5644,1046.5528 1075.5644,1039.4162 C 1075.5644,1032.2796 1075.2925,1022.3067 1069.5154,1022.3067 C 1063.7258,1022.039 1063.4538,1032.2796 1063.4538,1039.4162 M 1079.4339,1039.4162 C 1079.4339,1046.9752 1078.8984,1060.1692 1069.5154,1060.1692 C 1060.6511,1060.1692 1059.5885,1048.8493 1059.5885,1039.4162 C 1059.5885,1029.1756 1060.9397,1018.6629 1069.5154,1018.6629 C 1078.6307,1018.6629 1079.4339,1030.5142 1079.4339,1039.4162"
         id="path2536"
         style="fill:#898989;fill-opacity:1;fill-rule:nonzero;stroke:none" />
      <path
         d="M 1099.5303,1059.6297 L 1096.2674,1059.6297 L 1087.152,1032.4469 C 1086.5664,1030.786 1086.2359,1028.9581 1085.7632,1027.2386 L 1085.5582,1027.2386 C 1085.7046,1029.874 1085.9765,1032.4469 1085.9765,1035.074 L 1085.9765,1059.6297 L 1082.6968,1059.6297 L 1082.6968,1019.2027 L 1085.9765,1019.2027 L 1095.255,1047.2931 C 1095.7361,1048.6903 1096.1084,1050.0791 1096.4891,1051.4847 L 1096.648,1051.4847 C 1096.5393,1049.711 1096.2674,1047.8955 1096.2674,1046.1178 L 1096.2674,1019.2027 L 1099.5303,1019.2027 L 1099.5303,1059.6297 z"
         id="path2538"
         style="fill:#898989;fill-opacity:1;fill-rule:nonzero;stroke:none" />
    </g>
  </g>
</svg>
